<?xml version="1.0" encoding="utf-8"?>
<!-- Generator: Adobe Illustrator 16.0.3, SVG Export Plug-In . SVG Version: 6.00 Build 0)  -->
<!DOCTYPE svg PUBLIC "-//W3C//DTD SVG 1.1//EN" "http://www.w3.org/Graphics/SVG/1.1/DTD/svg11.dtd">
<svg version="1.1" id="Capa_1" xmlns="http://www.w3.org/2000/svg" xmlns:xlink="htts://www.w3.org/1999/xlink" x="0px" y="0px"
	 width="557.847px" height="142.507px" viewBox="0 0 557.847 142.507" enable-background="new 0 0 557.847 142.507"
	 xml:space="preserve">
<path fill-rule="evenodd" clip-rule="evenodd" fill="none" d="M272.491-139.389c-3.478,0.002-6.957-0.068-10.431,0.028
	c-2.107,0.058-2.939-0.713-2.9-2.882c0.038-2.101,1.13-2.406,2.833-2.396c6.954,0.044,13.909,0.008,20.863,0.054
	c1.77,0.012,3.414,0.519,3.495,2.674c0.088,2.361-1.698,2.502-3.428,2.514C279.445-139.375,275.968-139.391,272.491-139.389z"/>
<path fill-rule="evenodd" clip-rule="evenodd" fill="none" d="M272.394-128.387c-3.479-0.004-6.957-0.036-10.435,0.01
	c-1.739,0.023-2.747-0.421-2.8-2.469c-0.058-2.225,0.869-2.835,2.937-2.81c6.79,0.082,13.582,0.004,20.372,0.056
	c1.867,0.014,3.895,0.232,3.874,2.77c-0.022,2.736-2.25,2.395-4.01,2.429C279.02-128.337,275.707-128.383,272.394-128.387z"/>
<path fill-rule="evenodd" clip-rule="evenodd" fill="none" d="M55.56-139.387c-3.333-0.001-6.667-0.042-10,0.015
	c-1.958,0.033-3.126-0.449-3.074-2.779c0.046-2.065,1.047-2.499,2.807-2.488c6.833,0.039,13.667,0.01,20.5,0.025
	c1.777,0.004,3.56,0.369,3.648,2.514c0.108,2.623-2.018,2.671-3.881,2.7C62.227-139.35,58.893-139.386,55.56-139.387z"/>
<g>
	<path fill-rule="evenodd" clip-rule="evenodd" fill="#EC581D" d="M465.971,133.205c-33.629-0.021-61.09-27.484-61.025-61.036
		c0.063-33.588,27.543-60.92,61.195-60.867c33.408,0.053,60.977,27.827,60.832,61.287
		C526.831,105.764,499.194,133.227,465.971,133.205z M407.997,72.452c0.074,31.835,26.072,57.796,57.904,57.825
		c31.988,0.027,58.221-26.24,58.146-58.22c-0.074-31.705-26.281-57.813-58.041-57.827C433.946,14.218,407.92,40.337,407.997,72.452z
		"/>
	<path fill-rule="evenodd" clip-rule="evenodd" fill="#EC581D" d="M357.766,67.214c-4.322,0.004-8.646-0.084-12.965,0.037
		c-2.383,0.068-3.678-0.408-3.615-3.229c0.158-7.145,0.115-14.295,0.02-21.442c-0.031-2.416,0.965-3.159,3.262-3.136
		c8.477,0.086,16.965-0.217,25.43,0.124c8.174,0.329,11.061,4.641,8.732,12.629c-0.459,1.574,0.156,2.503,0.525,3.688
		c1.916,6.151-1.404,11.016-7.928,11.288C366.749,67.361,362.252,67.208,357.766,67.214z M360.118,50.458
		c3.477,0,6.953,0.016,10.432-0.006c1.729-0.012,3.516-0.152,3.428-2.514c-0.082-2.155-1.725-2.662-3.496-2.674
		c-6.953-0.047-13.908-0.011-20.861-0.055c-1.703-0.011-2.795,0.295-2.834,2.396c-0.039,2.169,0.793,2.94,2.9,2.882
		C353.161,50.392,356.639,50.462,360.118,50.458z M360.02,61.466c3.313,0,6.627,0.047,9.938-0.019
		c1.76-0.034,3.988,0.308,4.01-2.429c0.021-2.537-2.008-2.756-3.873-2.77c-6.791-0.052-13.582,0.025-20.373-0.057
		c-2.066-0.024-2.994,0.586-2.936,2.811c0.053,2.049,1.061,2.492,2.801,2.469C353.063,61.427,356.542,61.458,360.02,61.466z"/>
	<path fill-rule="evenodd" clip-rule="evenodd" fill="#EC581D" d="M47.617,67.039c-4.495-0.002-8.993-0.102-13.483,0.039
		c-2.429,0.074-3.111-0.869-3.14-3.205c-0.03-2.485,1.273-2.606,3.127-2.597c8.49,0.039,16.981,0.022,25.471,0.007
		c1.811-0.003,4.072,0.287,4.274-2.242c0.23-2.878-2.183-2.936-4.183-2.961c-5.659-0.07-11.32-0.01-16.98-0.053
		c-1.488-0.012-3.01-0.047-4.456-0.357c-4.836-1.039-7.496-4.375-7.144-8.75c0.348-4.315,3.53-7.439,8.447-7.547
		c9.152-0.199,18.312-0.024,27.467-0.109c2.213-0.021,2.84,0.87,2.824,2.962c-0.018,2.23-1.016,2.847-3.057,2.833
		c-8.324-0.055-16.648-0.063-24.972,0.018c-1.985,0.02-4.951-0.77-4.819,2.614c0.123,3.136,2.949,2.557,5.017,2.578
		c5.66,0.061,11.322-0.055,16.98,0.043c6.898,0.119,10.69,3.285,10.574,8.632c-0.113,5.201-3.756,8.037-10.461,8.093
		C55.276,67.068,51.446,67.042,47.617,67.039z"/>
	<path fill-rule="evenodd" clip-rule="evenodd" fill="#EC581D" d="M146.475,56.69c2.917,4.643,7.131,4.5,11.264,4.607
		c2.01,0.053,4.339-0.774,4.362,2.885c0.024,3.799-2.502,2.932-4.407,2.803c-7.109-0.48-13.762-1.363-17.097-9.461
		c-1.329-3.227-5.707-1.313-8.674-1.32c-2.551-0.006-1.617,2.406-1.752,3.896c-0.135,1.486-0.059,2.993-0.046,4.492
		c0.015,1.584-0.563,2.484-2.331,2.447c-1.604-0.033-3.118-0.061-3.125-2.201c-0.026-7.655-0.023-15.311-0.019-22.967
		c0.001-2.018,1.291-2.409,2.992-2.4c8.821,0.046,17.652-0.199,26.458,0.168c5.809,0.243,9.042,3.975,8.691,8.856
		c-0.332,4.613-3.802,7.357-9.423,7.563C151.249,56.137,149.075,55.621,146.475,56.69z M143.187,50.463
		c3.333,0,6.667,0.036,10-0.015c1.863-0.028,3.989-0.076,3.881-2.699c-0.088-2.145-1.871-2.51-3.648-2.514
		c-6.833-0.016-13.667,0.014-20.5-0.025c-1.76-0.011-2.76,0.423-2.807,2.488c-0.052,2.33,1.115,2.813,3.074,2.779
		C136.519,50.421,139.853,50.462,143.187,50.463z"/>
	<path fill-rule="evenodd" clip-rule="evenodd" fill="#EC581D" d="M96.885,67.218c-5.16-0.002-10.322-0.096-15.479,0.041
		c-2.446,0.064-3.623-0.482-3.556-3.268c0.166-6.987,0.168-13.984-0.002-20.971c-0.072-2.958,1.144-3.625,3.834-3.594
		c10.318,0.115,20.64,0.078,30.959,0.023c2.271-0.012,3.841,0.249,3.82,3.152c-0.02,2.886-1.822,2.62-3.675,2.618
		c-8.489-0.006-16.978-0.021-25.467,0.017c-1.702,0.008-3.783-0.639-3.881,2.386c-0.104,3.207,1.989,2.813,3.99,2.855
		c4.322,0.095,8.648,0.14,12.962,0.394c2.027,0.12,5.079-1.191,5.009,2.84c-0.066,3.771-2.935,2.386-4.755,2.452
		c-4.654,0.168-9.319,0.094-13.979,0.041c-1.854-0.021-3.237,0.143-3.229,2.578c0.008,2.332,1.226,2.713,3.161,2.702
		c7.989-0.046,15.982-0.134,23.967,0.063c2.196,0.055,5.875-1.766,5.827,2.975c-0.045,4.498-3.537,2.482-5.529,2.605
		C106.218,67.412,101.546,67.218,96.885,67.218z"/>
	<path fill-rule="evenodd" clip-rule="evenodd" fill="#EC581D" d="M313.921,67.218c-5.162,0-10.326-0.109-15.482,0.043
		c-2.633,0.078-3.963-0.5-3.889-3.514c0.172-6.821,0.123-13.65,0.018-20.474c-0.041-2.675,0.73-3.889,3.67-3.851
		c10.486,0.135,20.975,0.077,31.462,0.032c2.072-0.009,3.449,0.236,3.496,2.89c0.047,2.665-1.268,2.915-3.373,2.899
		c-8.655-0.063-17.312-0.035-25.968-0.015c-1.766,0.005-3.732-0.448-3.75,2.524c-0.016,2.831,1.723,2.691,3.625,2.727
		c4.656,0.086,9.313,0.189,13.967,0.371c1.98,0.078,4.545-0.799,4.471,2.871c-0.068,3.447-2.5,2.422-4.244,2.461
		c-4.659,0.105-9.323,0.005-13.983,0.054c-1.711,0.018-3.754-0.585-3.828,2.435c-0.08,3.277,2.111,2.781,4.041,2.787
		c7.99,0.026,15.983-0.064,23.97,0.066c1.973,0.033,4.902-1.344,5.053,2.743c0.152,4.152-2.771,2.855-4.775,2.91
		C323.578,67.306,318.748,67.218,313.921,67.218z"/>
	<path fill-rule="evenodd" clip-rule="evenodd" fill="#EC581D" d="M270.737,40.772c-2.357,3.213-4.461,6.577-7.061,9.5
		c-3.414,3.839,0.244,5.938,2.061,7.791c2.564,2.615,3.057-1.294,3.972-2.354c3.251-3.77,6.329-7.742,9.006-11.935
		c2.246-3.519,4.993-4.363,9.298-3.084c-6.717,8.943-13.288,17.658-19.809,26.41c-1.213,1.629-2.054,1.137-3.018-0.184
		c-1.667-2.283-3.447-4.485-5.055-6.809c-1.216-1.758-2.285-2.344-3.615-0.168c-0.344,0.564-0.805,1.057-1.209,1.586
		c-5.672,7.43-5.67,7.428-11.396-0.23c-5.051-6.756-10.108-13.507-15.364-20.528c4.253-1.418,6.892-0.425,9.202,2.954
		c3.646,5.334,7.729,10.367,11.646,15.553c5.838-5.66,5.835-5.658,1.239-11.781c-1.574-2.096-3.131-4.205-5.232-7.029
		c3.261-0.187,5.666-1.321,7.827,1.227c1.696,2,2.767,4.551,5.167,6.075C261.985,44.668,263.264,37.813,270.737,40.772z"/>
	<path fill-rule="evenodd" clip-rule="evenodd" fill="#EC581D" d="M167.563,40.616c4.096-1.51,6.593-0.749,8.733,2.382
		c3.187,4.661,6.882,8.974,10.109,13.61c1.69,2.428,2.718,2.717,4.519,0.127c3.132-4.501,6.532-8.815,9.828-13.202
		c2.938-3.911,2.943-3.907,8.673-3.284c-1.279,3.72-4.115,6.287-6.258,9.257c-4.087,5.661-8.349,11.196-12.593,16.742
		c-0.796,1.039-1.566,3.005-3.25,0.752C180.803,58.272,174.264,49.558,167.563,40.616z"/>
	<path fill-rule="evenodd" clip-rule="evenodd" fill="#EC581D" d="M221.982,53.753c0,3.486-0.055,6.973,0.021,10.458
		c0.042,1.908-0.225,3.09-2.642,3.072c-2.376-0.016-3.201-0.791-3.163-3.168c0.111-6.969,0.114-13.944,0-20.914
		c-0.04-2.465,1.005-3.072,3.267-3.105c2.516-0.037,2.55,1.408,2.528,3.2C221.953,46.78,221.982,50.267,221.982,53.753z"/>
	<path fill-rule="evenodd" clip-rule="evenodd" fill="#FFFFFF" stroke="#000000" stroke-miterlimit="10" d="M472.567,44.291
		c9.658,0,19.324,0.228,28.973-0.096c4.805-0.161,3.943,2.825,3.873,5.501c-0.074,2.723,1.258,6.115-3.934,6.057
		c-17.816-0.203-35.635-0.085-53.453-0.058c-1.822,0.003-3.658,0.103-5.459,0.358c-2.729,0.389-3.98,2.176-4.08,4.845
		c-0.1,2.725,1.299,4.513,3.816,5.142c1.744,0.434,3.629,0.395,5.453,0.416c13.148,0.148,26.301,0.158,39.449,0.408
		c11.375,0.217,18.477,7.123,18.23,17.404c-0.213,8.844-5.783,15.458-14.654,15.954c-10.957,0.615-21.963,0.379-32.947,0.445
		c-8.826,0.053-17.656-0.129-26.477,0.076c-3.441,0.08-4.658-0.926-4.525-4.473c0.322-8.601-0.727-7.067,7.201-7.108
		c16.984-0.088,33.971-0.02,50.957-0.037c1.656-0.002,3.359,0.049,4.961-0.299c2.537-0.553,4.029-2.207,4.078-4.945
		c0.045-2.491-1.199-4.002-3.459-4.918c-1.922-0.777-3.902-0.736-5.898-0.744c-13.32-0.061-26.643-0.01-39.961-0.217
		c-9.557-0.148-16.682-6.142-17.633-14.411c-1.271-11.07,5.826-19.182,17.012-19.283C453.583,44.223,463.075,44.291,472.567,44.291z
		"/>
	<g>
		<path fill="#FFFFFF" d="M88.667,88.624h3.478v12.001h-3.478V88.624z M91.02,99.023h5.609c1.83,0,3.248-0.23,4.254-0.689
			s1.509-1.107,1.509-1.943v-3.532c0-0.838-0.503-1.484-1.509-1.945c-1.006-0.459-2.424-0.688-4.254-0.688H91.02v-1.602h5.507
			c1.989,0,3.688,0.168,5.098,0.502c1.409,0.336,2.483,0.826,3.222,1.471c0.739,0.643,1.108,1.42,1.108,2.328v3.399
			c0,0.908-0.37,1.684-1.108,2.328c-0.739,0.643-1.816,1.133-3.231,1.469s-3.117,0.504-5.106,0.504h-5.49V99.023z"/>
		<path fill="#FFFFFF" d="M111.24,88.624h3.478v12.001h-3.478V88.624z M112.928,88.624h14.236v1.602h-14.236V88.624z
			 M112.928,93.864h12.36v1.601h-12.36V93.864z M112.928,99.023h14.236v1.602h-14.236V99.023z"/>
		<path fill="#FFFFFF" d="M137.769,100.748c0,0-0.534-0.055-1.603-0.164c-1.068-0.111-2.066-0.275-2.992-0.496
			s-1.793-0.494-2.6-0.824l2.166-1.289c0.943,0.396,1.983,0.693,3.12,0.893c1.136,0.197,2.37,0.297,3.699,0.297
			c1.796,0,3.188-0.162,4.177-0.482c0.989-0.322,1.483-0.777,1.483-1.367v-0.008c0-0.418-0.225-0.75-0.673-0.994
			c-0.449-0.246-1.029-0.428-1.739-0.545c-0.71-0.119-1.628-0.229-2.753-0.326c-0.034-0.006-0.071-0.01-0.111-0.01
			c-0.04,0-0.077-0.002-0.111-0.008l-0.256-0.023c-1.659-0.139-3.009-0.294-4.049-0.466c-1.04-0.174-1.93-0.49-2.668-0.949
			c-0.739-0.461-1.108-1.113-1.108-1.961v-0.008c0-0.744,0.344-1.377,1.031-1.904c0.688-0.525,1.691-0.926,3.009-1.199
			c1.318-0.275,2.904-0.414,4.757-0.414c0.886,0,1.759,0.047,2.617,0.141c0.858,0.094,1.705,0.232,2.541,0.416
			c0.835,0.186,1.657,0.418,2.463,0.699l-1.978,1.336c-0.943-0.336-1.884-0.586-2.822-0.754c-0.938-0.168-1.878-0.252-2.821-0.252
			c-1.694,0-3.009,0.164-3.947,0.49c-0.938,0.328-1.406,0.791-1.406,1.391v0.01c0,0.412,0.241,0.736,0.725,0.973
			c0.483,0.236,1.085,0.412,1.807,0.525c0.722,0.111,1.725,0.229,3.009,0.35c0.045,0.006,0.088,0.01,0.128,0.014
			c0.04,0.002,0.082,0.006,0.127,0.012c0.057,0.006,0.12,0.012,0.188,0.016c0.068,0.006,0.13,0.012,0.188,0.018
			c1.5,0.148,2.753,0.324,3.759,0.527c1.006,0.205,1.847,0.533,2.523,0.985c0.676,0.455,1.015,1.076,1.015,1.861v0.018
			c0,0.732-0.358,1.357-1.074,1.877c-0.716,0.521-1.753,0.918-3.111,1.189c-1.358,0.273-2.998,0.408-4.919,0.408
			C138.365,100.748,137.769,100.748,137.769,100.748z"/>
		<path fill="#FFFFFF" d="M159.336,88.624h2.966l9.139,12.001h-3.751l-6.871-9.683l-6.871,9.683h-3.751L159.336,88.624z
			 M154.409,96.391h13.042v1.602h-13.042V96.391z"/>
		<path fill="#FFFFFF" d="M175.191,88.614h3.478v12.011h-3.478V88.614z M176.709,93.948h8.457c0.659,0,1.245-0.078,1.756-0.232
			c0.512-0.154,0.907-0.373,1.185-0.656s0.417-0.609,0.417-0.979c0-0.367-0.139-0.693-0.417-0.977s-0.671-0.502-1.176-0.656
			c-0.506-0.154-1.094-0.232-1.765-0.232h-8.457v-1.602h8.32c1.432,0,2.691,0.145,3.776,0.43c1.085,0.287,1.927,0.691,2.523,1.219
			c0.597,0.525,0.895,1.131,0.895,1.818c0,0.689-0.301,1.295-0.903,1.82c-0.603,0.527-1.446,0.932-2.532,1.219
			c-1.085,0.284-2.338,0.429-3.759,0.429h-8.32V93.948z M183.46,95.177l3.461-0.379l6.342,5.827h-4.126L183.46,95.177z"/>
		<path fill="#FFFFFF" d="M197.952,88.614h3.478v12.011h-3.478V88.614z M199.47,93.948h8.456c0.66,0,1.245-0.078,1.756-0.232
			c0.511-0.154,0.906-0.373,1.185-0.656c0.278-0.283,0.417-0.609,0.417-0.979c0-0.367-0.139-0.693-0.417-0.977
			c-0.279-0.283-0.671-0.502-1.177-0.656s-1.094-0.232-1.765-0.232h-8.456v-1.602h8.32c1.432,0,2.691,0.145,3.776,0.43
			c1.085,0.287,1.927,0.691,2.523,1.219c0.597,0.525,0.895,1.131,0.895,1.818c0,0.689-0.301,1.295-0.904,1.82
			c-0.602,0.527-1.446,0.932-2.532,1.219c-1.085,0.284-2.338,0.429-3.759,0.429h-8.32V93.948z M206.221,95.177l3.461-0.379
			l6.342,5.827h-4.126L206.221,95.177z"/>
		<path fill="#FFFFFF" d="M223.663,100.199c-1.319-0.365-2.339-0.883-3.061-1.551c-0.722-0.67-1.083-1.443-1.083-2.324v-3.399
			c0-0.881,0.361-1.656,1.083-2.324c0.722-0.67,1.742-1.186,3.061-1.553c1.318-0.365,2.841-0.549,4.569-0.549
			c1.728,0,3.251,0.184,4.569,0.549c1.318,0.367,2.338,0.883,3.061,1.553c0.722,0.668,1.083,1.443,1.083,2.324v3.399
			c0,0.881-0.361,1.654-1.083,2.324c-0.722,0.668-1.742,1.186-3.061,1.551c-1.318,0.367-2.841,0.549-4.569,0.549
			C226.504,100.748,224.981,100.566,223.663,100.199z M230.934,98.756c0.778-0.225,1.381-0.541,1.807-0.949
			c0.426-0.41,0.639-0.885,0.639-1.426v-3.515c0-0.539-0.213-1.014-0.639-1.424s-1.029-0.727-1.807-0.949
			c-0.779-0.223-1.68-0.334-2.703-0.334s-1.923,0.111-2.702,0.334c-0.778,0.223-1.381,0.539-1.807,0.949s-0.64,0.885-0.64,1.424
			v3.515c0,0.541,0.213,1.016,0.64,1.426c0.426,0.408,1.029,0.725,1.807,0.949c0.779,0.223,1.679,0.334,2.702,0.334
			S230.155,98.979,230.934,98.756z"/>
		<path fill="#FFFFFF" d="M242.229,88.624h3.479v12.001h-3.479V88.624z M243.967,99.023h14.186v1.602h-14.186V99.023z"/>
		<path fill="#FFFFFF" d="M262.245,88.624h3.479v12.001h-3.479V88.624z M263.984,99.023h14.185v1.602h-14.185V99.023z"/>
		<path fill="#FFFFFF" d="M285.209,100.199c-1.318-0.365-2.338-0.883-3.061-1.551c-0.721-0.67-1.082-1.443-1.082-2.324v-3.399
			c0-0.881,0.361-1.656,1.082-2.324c0.723-0.67,1.742-1.186,3.061-1.553c1.319-0.365,2.842-0.549,4.571-0.549
			c1.727,0,3.25,0.184,4.568,0.549c1.318,0.367,2.338,0.883,3.061,1.553c0.721,0.668,1.082,1.443,1.082,2.324v3.399
			c0,0.881-0.361,1.654-1.082,2.324c-0.723,0.668-1.742,1.186-3.061,1.551c-1.318,0.367-2.842,0.549-4.568,0.549
			C288.052,100.748,286.528,100.566,285.209,100.199z M292.481,98.756c0.779-0.225,1.381-0.541,1.807-0.949
			c0.428-0.41,0.641-0.885,0.641-1.426v-3.515c0-0.539-0.213-1.014-0.641-1.424c-0.426-0.41-1.027-0.727-1.807-0.949
			s-1.68-0.334-2.701-0.334c-1.023,0-1.924,0.111-2.703,0.334c-0.779,0.223-1.381,0.539-1.807,0.949
			c-0.427,0.41-0.64,0.885-0.64,1.424v3.515c0,0.541,0.213,1.016,0.64,1.426c0.426,0.408,1.028,0.725,1.807,0.949
			c0.779,0.223,1.68,0.334,2.703,0.334C290.802,99.09,291.702,98.979,292.481,98.756z"/>
		<path fill="#FFFFFF" d="M324.015,88.624h2.387l5.079,9.409l4.383-9.409h3.613l-6.053,12.001h-3.545l-4.569-8.386l-4.773,8.386
			h-3.547l-6.053-12.001h3.615l4.381,9.409L324.015,88.624z"/>
		<path fill="#FFFFFF" d="M343.229,88.624h3.477v12.001h-3.477V88.624z M344.917,88.624h14.236v1.602h-14.236V88.624z
			 M344.917,93.864h12.359v1.601h-12.359V93.864z M344.917,99.023h14.236v1.602h-14.236V99.023z"/>
		<path fill="#FFFFFF" d="M364.096,88.624h3.461v12.001h-3.461V88.624z M366.143,99.064h6.717c1.762,0,3.045-0.162,3.854-0.486
			c0.807-0.326,1.209-0.781,1.209-1.371v-0.025c0-0.406-0.145-0.756-0.434-1.047c-0.291-0.293-0.748-0.516-1.373-0.674
			c-0.625-0.156-1.426-0.234-2.404-0.234h-7.568v-1.519h7.568c1.285,0,2.254-0.146,2.908-0.438c0.652-0.291,0.98-0.723,0.98-1.295
			c0-0.602-0.365-1.049-1.092-1.346c-0.729-0.299-1.818-0.447-3.273-0.447h-7.092v-1.559h7.723c1.602,0,2.943,0.131,4.023,0.395
			c1.08,0.266,1.887,0.639,2.422,1.123c0.533,0.484,0.801,1.063,0.801,1.734c0,0.412-0.166,0.799-0.494,1.16
			c-0.33,0.359-0.834,0.668-1.51,0.924s-1.514,0.428-2.514,0.516c1,0.072,1.863,0.244,2.59,0.516
			c0.729,0.272,1.285,0.612,1.672,1.019c0.387,0.408,0.58,0.848,0.58,1.322v0.023c0,0.65-0.297,1.223-0.887,1.717
			c-0.592,0.496-1.438,0.879-2.541,1.148c-1.102,0.27-2.387,0.404-3.854,0.404h-8.012V99.064z"/>
	</g>
</g>
</svg>
